<?xml version="1.0" standalone="no"?>
<!DOCTYPE svg PUBLIC "-//W3C//DTD SVG 20010904//EN"
 "http://www.w3.org/TR/2001/REC-SVG-20010904/DTD/svg10.dtd">
<svg version="1.0" xmlns="http://www.w3.org/2000/svg"
 width="700.000000pt" height="700.000000pt" viewBox="0 0 700.000000 700.000000"
 preserveAspectRatio="xMidYMid meet">
<metadata>
Created by potrace 1.11, written by Peter Selinger 2001-2013
</metadata>
<g transform="translate(0.000000,700.000000) scale(0.100000,-0.100000)"
fill="#000000" stroke="none">
<path d="M645 6985 c-323 -71 -562 -313 -629 -635 -13 -63 -15 -180 -16 -732
l0 -658 32 0 c52 -1 6921 -1 6946 0 l22 0 -1 658 c-1 712 -3 736 -56 873 -95
243 -300 419 -568 489 -67 18 -188 19 -2870 18 -2281 0 -2811 -2 -2860 -13z
m3718 -591 c109 -36 206 -119 256 -220 142 -283 -59 -619 -374 -629 -130 -4
-236 38 -326 129 -206 208 -150 560 111 693 102 52 227 62 333 27z m1474 -5
c247 -91 358 -374 238 -608 -134 -262 -482 -318 -693 -111 -176 171 -173 451
6 625 114 112 297 150 449 94z"/>
<path d="M4 4371 c-2 -2 -4 -395 -4 -872 0 -685 3 -868 13 -871 6 -2 1580 -4
3497 -3 l3485 0 0 875 0 875 -3493 0 c-1922 0 -3496 -2 -3498 -4z m4364 -457
c147 -50 263 -183 290 -332 35 -195 -63 -387 -241 -475 -69 -33 -112 -42 -207
-40 -312 6 -512 346 -369 629 96 192 324 286 527 218z m1464 -3 c142 -49 247
-168 281 -318 43 -189 -48 -385 -221 -476 -75 -40 -108 -48 -197 -52 -280 -11
-505 272 -431 543 68 248 326 386 568 303z"/>
<path d="M22 2042 l-23 -3 1 -662 c1 -533 4 -675 15 -730 66 -310 290 -543
599 -622 l91 -24 2810 2 c1546 1 2824 6 2840 10 343 88 566 318 634 652 6 30
10 310 11 713 l1 662 -23 1 c-104 2 -6938 3 -6956 1z m4367 -616 c106 -43 181
-112 229 -210 47 -97 60 -194 37 -291 -66 -281 -383 -425 -633 -288 -302 165
-303 603 -1 768 109 59 255 68 368 21z m1443 6 c335 -119 396 -576 102 -771
-337 -223 -769 82 -668 472 62 241 330 383 566 299z"/>
</g>
</svg>
